<svg width="37" height="37" viewBox="0 0 37 37" fill="none" xmlns="http://www.w3.org/2000/svg">
<circle cx="18.2249" cy="18.7358" r="18" fill="#003264"/>
<path fill-rule="evenodd" clip-rule="evenodd" d="M23.0568 22.5052C23.0153 22.597 22.9498 22.6829 22.8646 22.7591L21.9935 23.5385L21.9891 23.5424C21.9039 23.6185 21.8079 23.6771 21.7052 23.7142C21.5983 23.7553 21.4869 23.7768 21.3668 23.7768C21.2467 23.7768 21.1332 23.7553 21.0284 23.7142C20.9258 23.6732 20.8319 23.6146 20.7511 23.5385L20.1834 23.0365C20.1485 23.0501 20.1135 23.0677 20.0808 23.0814C19.9847 23.1224 19.8843 23.1576 19.7882 23.1908C19.7838 23.1947 19.7795 23.1947 19.7729 23.1947C19.6769 23.2298 19.5742 23.2591 19.4629 23.2904C19.4279 23.3002 19.393 23.3119 19.3559 23.3177V23.9369C19.3559 24.0444 19.3319 24.1459 19.2904 24.2397C19.2489 24.3315 19.1834 24.4155 19.0983 24.4897L19.0895 24.4975C19.0044 24.5698 18.9083 24.6284 18.8057 24.6655C18.7009 24.7026 18.5895 24.7241 18.476 24.7241H17.2314C17.1114 24.7241 17 24.7026 16.893 24.6655C16.7904 24.6284 16.6943 24.5698 16.6092 24.4936C16.524 24.4174 16.4585 24.3315 16.417 24.2397C16.3755 24.1459 16.3515 24.0463 16.3515 23.9369V23.2298C16.3122 23.2162 16.2751 23.2064 16.2358 23.1927C16.1332 23.1576 16.0328 23.1165 15.9279 23.0755C15.8253 23.0306 15.7249 22.9896 15.6288 22.9447C15.5983 22.931 15.5677 22.9134 15.5371 22.8997L15.0502 23.3431L15.0393 23.3529C14.9541 23.4252 14.8581 23.4799 14.7555 23.517C14.6528 23.5541 14.5415 23.5717 14.4258 23.5717C14.31 23.5717 14.1987 23.5541 14.0961 23.517C13.9935 23.4799 13.8974 23.4271 13.8122 23.3548C13.8079 23.3509 13.8035 23.3509 13.8035 23.347L12.9345 22.5599C12.8493 22.4876 12.7817 22.4016 12.738 22.3098C12.6921 22.218 12.6681 22.1145 12.6681 22.0032C12.6681 21.8957 12.6921 21.7942 12.738 21.6965C12.7838 21.6008 12.8493 21.5188 12.9345 21.4465L13.4913 20.9484C13.4716 20.9132 13.4563 20.8839 13.441 20.8527C13.3996 20.7667 13.3559 20.6769 13.3144 20.5812C13.2751 20.4913 13.238 20.3956 13.2074 20.2999C13.1965 20.2687 13.1834 20.2355 13.1769 20.2042H12.4847C12.3646 20.2042 12.2511 20.1827 12.1463 20.1456C12.0437 20.1085 11.9498 20.0499 11.8668 19.9737L11.8581 19.9659C11.7773 19.8897 11.7118 19.8038 11.6703 19.7159C11.6288 19.6221 11.6048 19.5225 11.6048 19.4209V18.3076C11.6048 18.0868 11.69 17.9013 11.8624 17.7509C11.9476 17.6747 12.0437 17.6161 12.1463 17.579C12.2511 17.5419 12.3624 17.5204 12.4847 17.5204H13.2751C13.2904 17.4852 13.3013 17.452 13.3166 17.4169C13.3559 17.3251 13.4017 17.2352 13.4476 17.1415C13.4978 17.0477 13.5437 16.9598 13.5939 16.8739C13.6092 16.8465 13.6288 16.8192 13.6441 16.7918L13.1485 16.3562L13.1376 16.3465C13.0568 16.2703 12.9956 16.1843 12.9541 16.0925C12.9127 16.0007 12.893 15.9011 12.893 15.7976C12.893 15.6941 12.9127 15.5944 12.9541 15.5026C12.9956 15.4108 13.0546 15.3249 13.1354 15.2487C13.1397 15.2448 13.1397 15.2409 13.1441 15.2409L14.024 14.4615C14.1092 14.3854 14.2052 14.3268 14.3079 14.2897C14.4148 14.2486 14.5262 14.2272 14.6463 14.2272C14.7664 14.2272 14.8799 14.2486 14.9847 14.2897C15.0873 14.3307 15.1812 14.3893 15.262 14.4655L15.8188 14.9635C15.8581 14.946 15.8908 14.9323 15.9258 14.9186C16.0218 14.8815 16.1223 14.8424 16.2293 14.8053C16.3297 14.7702 16.4367 14.737 16.5437 14.7096C16.583 14.6998 16.6157 14.6881 16.6507 14.6823V14.0631C16.6507 13.9556 16.6747 13.8541 16.7162 13.7603C16.7576 13.6685 16.8231 13.5845 16.9083 13.5103L16.917 13.5025C17.0022 13.4302 17.0983 13.3716 17.1965 13.3345C17.3013 13.2974 17.4127 13.2759 17.5262 13.2759H18.7707C18.8908 13.2759 19.0022 13.2974 19.1092 13.3345C19.2118 13.3716 19.3079 13.4302 19.393 13.5064C19.4782 13.5826 19.5437 13.6685 19.5852 13.7603C19.6266 13.8541 19.6507 13.9537 19.6507 14.0631V14.7702C19.69 14.7838 19.7271 14.7936 19.7664 14.8073C19.869 14.8424 19.9694 14.8835 20.0742 14.9245C20.1769 14.9694 20.2773 15.0104 20.3734 15.0553C20.4039 15.069 20.4345 15.0866 20.4651 15.1003L20.952 14.6647C21.0371 14.5885 21.1332 14.5299 21.2358 14.4889C21.3428 14.4479 21.4541 14.4264 21.5742 14.4264C21.6943 14.4264 21.8057 14.4479 21.9127 14.4889C22.0197 14.5299 22.1114 14.5846 22.1965 14.6647L23.0677 15.444L23.0721 15.448C23.1572 15.5241 23.2227 15.6101 23.2642 15.7019C23.31 15.7976 23.3341 15.8972 23.3341 16.0046C23.3341 16.1121 23.31 16.2136 23.2642 16.3074C23.2183 16.4012 23.1528 16.4832 23.0677 16.5555L22.5109 17.0633C22.5262 17.0946 22.5459 17.1258 22.5611 17.1551C22.6004 17.2333 22.6419 17.3192 22.6834 17.413C22.6878 17.4169 22.6878 17.4208 22.6878 17.4266C22.7271 17.5165 22.7642 17.6122 22.7948 17.7079C22.8057 17.7392 22.8188 17.7724 22.8253 17.8036H23.5175C23.6376 17.8036 23.7511 17.8251 23.8559 17.8622C23.9585 17.8993 24.0524 17.9579 24.1354 18.0341L24.1441 18.0419C24.2249 18.1181 24.2904 18.204 24.3319 18.2919C24.3734 18.3857 24.3974 18.4853 24.3974 18.5869V19.7003C24.3974 19.8077 24.3734 19.9073 24.3319 20.003C24.2904 20.0948 24.2249 20.1808 24.1397 20.2608C24.0546 20.337 23.9585 20.3956 23.8559 20.4327C23.7511 20.4698 23.6397 20.4913 23.5175 20.4913H22.7271C22.7118 20.5265 22.7009 20.5597 22.6856 20.5949C22.6463 20.6867 22.6048 20.7765 22.5546 20.8703C22.5044 20.9621 22.4585 21.0519 22.4083 21.1379C22.393 21.1652 22.3734 21.1926 22.3581 21.2199L22.845 21.6555C22.9301 21.7317 22.9956 21.8176 23.0415 21.9094C23.0873 22.0051 23.1114 22.1047 23.1114 22.2122C23.1114 22.3196 23.0873 22.4192 23.0415 22.5149L23.0568 22.5052ZM15.7686 29.5546C12.9956 29.0877 10.559 27.7654 8.81441 25.9078C7.05677 24.0385 6 21.6301 6 19.0049C6 16.5379 6.93231 14.2623 8.50218 12.4477C10.1026 10.594 12.3668 9.22088 14.9782 8.61537L15.3668 9.95532C13.0939 10.4827 11.1223 11.6781 9.72707 13.2935C8.36463 14.8717 7.55459 16.8524 7.55459 19.0049C7.55459 21.2961 8.4738 23.3939 9.99782 25.0171C11.4563 26.57 13.4716 27.6931 15.7707 28.1384V26.7067L18.6943 28.8533L15.7707 31L15.7686 29.5546ZM20.2336 8.45715C22.9804 8.92008 25.3974 10.221 27.1397 12.0531C28.9236 13.9283 30 16.3562 30 19.0049C30 21.3352 29.1703 23.4916 27.7598 25.2515C26.3122 27.0583 24.2533 28.4451 21.8515 29.1737L21.6026 28.5174L21.3537 27.8611C21.4148 27.8435 21.476 27.824 21.5349 27.8044C23.5459 27.1579 25.2707 25.9722 26.4956 24.4448C27.7227 22.9134 28.4454 21.0363 28.4454 19.0068C28.4454 16.6941 27.5109 14.5787 25.9607 12.9497C24.5044 11.4183 22.5066 10.3147 20.2314 9.87133V11.2953L17.31 9.14666L20.2336 7V8.45715ZM20.1725 19.001C20.1725 19.1358 20.1572 19.2647 20.131 19.3897H20.1266C20.1004 19.5166 20.0568 19.6377 20.0044 19.753C19.9476 19.8741 19.8821 19.9874 19.8057 20.087C19.7336 20.1905 19.6441 20.2862 19.548 20.3722C19.4476 20.462 19.345 20.5363 19.2293 20.6066C19.1179 20.671 18.9913 20.7335 18.8559 20.7843C18.8515 20.7882 18.845 20.7882 18.8406 20.7921C18.7183 20.8371 18.5873 20.8703 18.452 20.8957C18.31 20.9191 18.1681 20.9328 18.0175 20.9328C17.8668 20.9328 17.7227 20.9191 17.583 20.8957C17.441 20.8722 17.3057 20.8332 17.1769 20.7863C17.0415 20.7355 16.9148 20.6769 16.8035 20.6085C16.6878 20.5402 16.5808 20.4601 16.4847 20.3741C16.3886 20.2843 16.3035 20.1925 16.2271 20.089C16.155 19.9893 16.0852 19.876 16.0284 19.7549C16.024 19.751 16.024 19.7452 16.0197 19.7413C15.9694 19.6319 15.9323 19.5147 15.9039 19.3936C15.8777 19.2666 15.8624 19.1397 15.8624 19.0049C15.8624 18.8701 15.8777 18.7412 15.9039 18.6162C15.9301 18.4892 15.9738 18.3681 16.0262 18.2529C16.083 18.1318 16.1485 18.0185 16.2249 17.9189C16.2969 17.8153 16.3865 17.7196 16.4825 17.6337C16.583 17.5438 16.6856 17.4696 16.8013 17.3993C16.9127 17.3348 17.0393 17.2723 17.1747 17.2196C17.179 17.2157 17.1856 17.2157 17.19 17.2118C17.3166 17.1668 17.4476 17.1336 17.5808 17.1082C17.7227 17.0848 17.8646 17.0711 18.0153 17.0711C18.1659 17.0711 18.31 17.0848 18.4498 17.1082C18.5917 17.1317 18.7271 17.1707 18.8559 17.2176C18.9913 17.2684 19.1179 17.327 19.2293 17.3973C19.345 17.4657 19.452 17.5458 19.548 17.6317C19.6441 17.7216 19.7293 17.8134 19.8057 17.9169C19.8777 18.0165 19.9476 18.1298 20.0044 18.2509C20.0087 18.2548 20.0087 18.2607 20.0131 18.2646C20.0633 18.374 20.1004 18.4912 20.1288 18.6123C20.1572 18.7392 20.1725 18.8662 20.1725 19.001Z" fill="white"/>
</svg>
