<svg width="36" height="36" viewBox="0 0 36 36" fill="none" xmlns="http://www.w3.org/2000/svg">
<circle cx="18" cy="18" r="18" fill="#18191A"/>
<path fill-rule="evenodd" clip-rule="evenodd" d="M22.2591 21.5052C22.2219 21.597 22.1633 21.6829 22.0872 21.7591L21.3078 22.5385L21.3039 22.5424C21.2277 22.6185 21.1418 22.6771 21.05 22.7143C20.9543 22.7553 20.8546 22.7768 20.7472 22.7768C20.6398 22.7768 20.5382 22.7553 20.4445 22.7143C20.3526 22.6732 20.2687 22.6146 20.1964 22.5385L19.6885 22.0365C19.6573 22.0501 19.626 22.0677 19.5967 22.0814C19.5108 22.1224 19.4209 22.1576 19.335 22.1908C19.3311 22.1947 19.3272 22.1947 19.3213 22.1947C19.2354 22.2298 19.1436 22.2591 19.0439 22.2904C19.0127 22.3002 18.9814 22.3119 18.9482 22.3177V22.9369C18.9482 23.0444 18.9268 23.1459 18.8896 23.2397C18.8525 23.3315 18.7939 23.4155 18.7178 23.4897L18.7099 23.4975C18.6338 23.5698 18.5478 23.6284 18.456 23.6655C18.3623 23.7026 18.2626 23.7241 18.1611 23.7241H17.0477C16.9403 23.7241 16.8406 23.7026 16.7449 23.6655C16.6531 23.6284 16.5672 23.5698 16.491 23.4936C16.4148 23.4174 16.3562 23.3315 16.3191 23.2397C16.282 23.1459 16.2605 23.0463 16.2605 22.9369V22.2298C16.2254 22.2162 16.1922 22.2064 16.157 22.1927C16.0652 22.1576 15.9753 22.1165 15.8816 22.0755C15.7898 22.0306 15.6999 21.9896 15.614 21.9447C15.5866 21.931 15.5593 21.9134 15.5319 21.8997L15.0964 22.3431L15.0866 22.3529C15.0104 22.4252 14.9245 22.4799 14.8327 22.517C14.7409 22.5541 14.6412 22.5717 14.5377 22.5717C14.4342 22.5717 14.3346 22.5541 14.2428 22.517C14.151 22.4799 14.065 22.4271 13.9888 22.3548C13.9849 22.3509 13.981 22.3509 13.981 22.347L13.2036 21.5599C13.1275 21.4876 13.0669 21.4016 13.0278 21.3098C12.9868 21.218 12.9653 21.1145 12.9653 21.0032C12.9653 20.8957 12.9868 20.7942 13.0278 20.6965C13.0689 20.6008 13.1275 20.5188 13.2036 20.4465L13.7017 19.9484C13.6841 19.9132 13.6705 19.8839 13.6568 19.8527C13.6197 19.7667 13.5806 19.6769 13.5435 19.5812C13.5083 19.4913 13.4751 19.3956 13.4478 19.2999C13.438 19.2687 13.4263 19.2355 13.4204 19.2042H12.8013C12.6938 19.2042 12.5923 19.1827 12.4985 19.1456C12.4067 19.1085 12.3227 19.0499 12.2485 18.9737L12.2407 18.9659C12.1684 18.8897 12.1098 18.8038 12.0727 18.7159C12.0356 18.6221 12.0141 18.5225 12.0141 18.4209V17.3076C12.0141 17.0868 12.0903 16.9013 12.2446 16.7509C12.3207 16.6747 12.4067 16.6161 12.4985 16.579C12.5923 16.5419 12.6919 16.5204 12.8013 16.5204H13.5083C13.522 16.4852 13.5318 16.452 13.5455 16.4169C13.5806 16.3251 13.6216 16.2352 13.6627 16.1414C13.7076 16.0477 13.7486 15.9598 13.7935 15.8739C13.8072 15.8465 13.8248 15.8192 13.8384 15.7918L13.3951 15.3562L13.3853 15.3465C13.313 15.2703 13.2583 15.1843 13.2212 15.0925C13.1841 15.0007 13.1665 14.9011 13.1665 14.7976C13.1665 14.6941 13.1841 14.5944 13.2212 14.5026C13.2583 14.4108 13.3111 14.3249 13.3833 14.2487C13.3872 14.2448 13.3872 14.2409 13.3911 14.2409L14.1783 13.4615C14.2545 13.3854 14.3404 13.3268 14.4322 13.2897C14.528 13.2486 14.6276 13.2272 14.735 13.2272C14.8424 13.2272 14.944 13.2486 15.0378 13.2897C15.1296 13.3307 15.2136 13.3893 15.2858 13.4655L15.7839 13.9635C15.8191 13.946 15.8484 13.9323 15.8796 13.9186C15.9656 13.8815 16.0554 13.8424 16.1511 13.8053C16.241 13.7702 16.3367 13.737 16.4324 13.7096C16.4676 13.6998 16.4969 13.6881 16.5281 13.6823V13.0631C16.5281 12.9556 16.5496 12.8541 16.5867 12.7603C16.6238 12.6685 16.6824 12.5845 16.7586 12.5103L16.7664 12.5025C16.8426 12.4302 16.9285 12.3716 17.0164 12.3345C17.1102 12.2974 17.2098 12.2759 17.3114 12.2759H18.4248C18.5322 12.2759 18.6318 12.2974 18.7275 12.3345C18.8193 12.3716 18.9053 12.4302 18.9814 12.5064C19.0576 12.5826 19.1162 12.6685 19.1533 12.7603C19.1904 12.8541 19.2119 12.9537 19.2119 13.0631V13.7702C19.2471 13.7838 19.2803 13.7936 19.3155 13.8073C19.4073 13.8424 19.4971 13.8835 19.5909 13.9245C19.6827 13.9694 19.7725 14.0104 19.8585 14.0553C19.8858 14.069 19.9132 14.0866 19.9405 14.1003L20.3761 13.6647C20.4523 13.5885 20.5382 13.5299 20.63 13.4889C20.7257 13.4479 20.8253 13.4264 20.9328 13.4264C21.0402 13.4264 21.1398 13.4479 21.2355 13.4889C21.3312 13.5299 21.4133 13.5846 21.4895 13.6647L22.2688 14.444L22.2727 14.448C22.3489 14.5241 22.4075 14.6101 22.4446 14.7019C22.4856 14.7976 22.5071 14.8972 22.5071 15.0046C22.5071 15.1121 22.4856 15.2136 22.4446 15.3074C22.4036 15.4012 22.345 15.4832 22.2688 15.5555L21.7707 16.0633C21.7844 16.0946 21.802 16.1258 21.8157 16.1551C21.8508 16.2333 21.8879 16.3192 21.925 16.413C21.9289 16.4169 21.9289 16.4208 21.9289 16.4266C21.9641 16.5165 21.9973 16.6122 22.0247 16.7079C22.0344 16.7392 22.0461 16.7724 22.052 16.8036H22.6712C22.7786 16.8036 22.8802 16.8251 22.974 16.8622C23.0658 16.8993 23.1497 16.9579 23.224 17.0341L23.2318 17.0419C23.3041 17.1181 23.3627 17.204 23.3998 17.2919C23.4369 17.3857 23.4584 17.4853 23.4584 17.5869V18.7003C23.4584 18.8077 23.4369 18.9073 23.3998 19.003C23.3627 19.0948 23.3041 19.1808 23.2279 19.2608C23.1517 19.337 23.0658 19.3956 22.974 19.4327C22.8802 19.4698 22.7806 19.4913 22.6712 19.4913H21.9641C21.9504 19.5265 21.9407 19.5597 21.927 19.5949C21.8918 19.6867 21.8547 19.7765 21.8098 19.8703C21.7649 19.9621 21.7239 20.0519 21.6789 20.1379C21.6653 20.1652 21.6477 20.1926 21.634 20.2199L22.0696 20.6555C22.1458 20.7317 22.2044 20.8176 22.2454 20.9094C22.2864 21.0051 22.3079 21.1047 22.3079 21.2122C22.3079 21.3196 22.2864 21.4192 22.2454 21.5149L22.2591 21.5052ZM15.739 28.5546C13.2583 28.0877 11.0785 26.7654 9.51778 24.9078C7.94539 23.0385 7 20.6301 7 18.0049C7 15.5379 7.83405 13.2623 9.23846 11.4477C10.6702 9.59404 12.6958 8.22088 15.0319 7.61537L15.3796 8.95532C13.3462 9.48271 11.5824 10.6781 10.3343 12.2935C9.11541 13.8717 8.39074 15.8524 8.39074 18.0049C8.39074 20.2961 9.21307 22.3939 10.5765 24.0171C11.8813 25.57 13.6841 26.6931 15.7409 27.1384V25.7067L18.3564 27.8533L15.7409 30L15.739 28.5546ZM19.7335 7.45715C22.1907 7.92008 24.353 9.22096 25.9117 11.0531C27.5075 12.9283 28.4705 15.3562 28.4705 18.0049C28.4705 20.3352 27.7282 22.4916 26.4664 24.2515C25.1714 26.0583 23.3295 27.4451 21.1808 28.1737L20.9582 27.5174L20.7355 26.8611C20.7902 26.8435 20.8449 26.824 20.8976 26.8044C22.6966 26.1579 24.2397 24.9722 25.3355 23.4448C26.4332 21.9134 27.0798 20.0363 27.0798 18.0068C27.0798 15.6941 26.2438 13.5787 24.8569 11.9497C23.5541 10.4183 21.7668 9.31472 19.7315 8.87133V10.2953L17.118 8.14666L19.7335 6V7.45715ZM19.6788 18.001C19.6788 18.1358 19.6651 18.2647 19.6417 18.3897H19.6377C19.6143 18.5166 19.5752 18.6377 19.5284 18.753C19.4776 18.8741 19.419 18.9874 19.3506 19.087C19.2862 19.1905 19.2061 19.2862 19.1201 19.3722C19.0303 19.462 18.9385 19.5363 18.8349 19.6066C18.7353 19.671 18.622 19.7335 18.5009 19.7843C18.497 19.7882 18.4912 19.7882 18.4873 19.7921C18.3779 19.8371 18.2607 19.8703 18.1396 19.8957C18.0126 19.9191 17.8857 19.9328 17.7509 19.9328C17.6161 19.9328 17.4872 19.9191 17.3622 19.8957C17.2352 19.8722 17.1141 19.8332 16.9989 19.7863C16.8778 19.7355 16.7645 19.6769 16.6648 19.6085C16.5613 19.5402 16.4656 19.4601 16.3797 19.3741C16.2937 19.2843 16.2175 19.1925 16.1492 19.089C16.0847 18.9893 16.0222 18.876 15.9714 18.7549C15.9675 18.751 15.9675 18.7452 15.9636 18.7413C15.9187 18.6319 15.8855 18.5147 15.8601 18.3936C15.8367 18.2666 15.823 18.1397 15.823 18.0049C15.823 17.8701 15.8367 17.7412 15.8601 17.6162C15.8835 17.4892 15.9226 17.3681 15.9695 17.2529C16.0203 17.1318 16.0789 17.0185 16.1472 16.9189C16.2117 16.8153 16.2918 16.7196 16.3777 16.6337C16.4676 16.5438 16.5594 16.4696 16.6629 16.3993C16.7625 16.3348 16.8758 16.2723 16.9969 16.2196C17.0008 16.2157 17.0067 16.2157 17.0106 16.2118C17.1239 16.1668 17.2411 16.1336 17.3602 16.1082C17.4872 16.0848 17.6141 16.0711 17.7489 16.0711C17.8837 16.0711 18.0126 16.0848 18.1376 16.1082C18.2646 16.1317 18.3857 16.1707 18.5009 16.2176C18.622 16.2684 18.7353 16.327 18.8349 16.3973C18.9385 16.4657 19.0342 16.5458 19.1201 16.6317C19.2061 16.7216 19.2822 16.8134 19.3506 16.9169C19.4151 17.0165 19.4776 17.1298 19.5284 17.2509C19.5323 17.2548 19.5323 17.2607 19.5362 17.2646C19.5811 17.374 19.6143 17.4912 19.6397 17.6123C19.6651 17.7392 19.6788 17.8662 19.6788 18.001Z" fill="white" stroke="white" stroke-width="0.5" stroke-miterlimit="2.6131"/>
</svg>
