<svg width="36" height="36" viewBox="0 0 36 36" fill="none" xmlns="http://www.w3.org/2000/svg">
<circle cx="18" cy="18" r="18" fill="#18191A"/>
<path fill-rule="evenodd" clip-rule="evenodd" d="M18.6439 10.3839C18.1193 10.1793 17.5777 10.0725 17.0192 10.0725C16.1791 10.0725 15.4883 10.3413 14.9467 10.8743L10.2728 15.5438L10.7591 16.0344L8.98497 17.8211L6 14.8316L7.7739 13.0575L8.32398 13.5948L12.9721 8.95095C13.6117 8.31567 14.2984 8 15.0319 8C16.2643 8 17.467 8.79331 18.6439 10.3839ZM25.7365 9.06167C26.2446 9.06167 26.7323 9.14825 27.1861 9.30707L26.033 10.5552C23.4132 13.3894 26.3697 15.0293 28.975 13.0836L29.9799 12.3333C30.0731 12.6892 30.123 13.063 30.123 13.4481C30.123 15.8709 28.1593 17.8348 25.7363 17.8348C24.946 17.8348 24.2043 17.6257 23.5639 17.2598L21.4335 19.5215C23.4387 21.4411 25.4444 23.3603 27.4498 25.2795L24.7293 28C22.8321 26.0217 20.9357 24.0425 19.0396 22.063L15.3042 26.0282C15.0205 26.5133 14.4942 26.8394 13.8919 26.8394C12.989 26.8394 12.2568 26.1073 12.2568 25.2043C12.2568 24.814 12.394 24.4553 12.6223 24.1742L12.6199 24.1719L12.6343 24.1595C12.7523 24.0176 12.8938 23.896 13.0528 23.8006L17.2542 20.199L12.0742 14.7737L14.2236 12.6244C16.2176 14.5397 17.8362 16.076 19.8328 17.9885L22.1618 15.9916C21.6506 15.2743 21.3499 14.3965 21.3499 13.4483C21.3499 11.0254 23.3136 9.06167 25.7365 9.06167ZM11.6205 10.0342L9.48401 12.1707L9.07449 11.7614L11.211 9.6247L11.6205 10.0342Z" fill="white"/>
</svg>
