<svg width="36" height="36" viewBox="0 0 36 36" fill="none" xmlns="http://www.w3.org/2000/svg">
<circle cx="18" cy="18" r="18" fill="#003264"/>
<path fill-rule="evenodd" clip-rule="evenodd" d="M17.6277 8.86063C17.0623 8.61515 16.4785 8.487 15.8766 8.487C14.9712 8.487 14.2266 8.80951 13.6428 9.4491L8.60526 15.0526L9.12937 15.6413L7.21723 17.7853L4 14.1979L5.91193 12.069L6.50481 12.7137L11.5146 7.14114C12.204 6.37881 12.9441 6 13.7346 6C15.063 6 16.3592 6.95197 17.6277 8.86063ZM25.2722 7.27401C25.8198 7.27401 26.3454 7.3779 26.8346 7.56848L25.5917 9.06629C22.7681 12.4673 25.9546 14.4351 28.7626 12.1003L29.8458 11.1999C29.9463 11.627 30 12.0756 30 12.5378C30 15.445 27.8835 17.8018 25.272 17.8018C24.4202 17.8018 23.6208 17.5509 22.9306 17.1118L20.6344 19.8258C22.7956 22.1293 24.9574 24.4323 27.1188 26.7354L24.1866 30C22.1417 27.6261 20.0978 25.251 18.0542 22.8756L14.0281 27.6339C13.7224 28.216 13.1551 28.6073 12.5059 28.6073C11.5328 28.6073 10.7436 27.7288 10.7436 26.6451C10.7436 26.1768 10.8915 25.7464 11.1376 25.4091L11.135 25.4062L11.1505 25.3914C11.2776 25.2211 11.4302 25.0752 11.6016 24.9607L16.1298 20.6388L10.5468 14.1284L12.8635 11.5493C15.0126 13.8476 16.7572 15.6912 18.9091 17.9862L21.4194 15.5899C20.8684 14.7291 20.5442 13.6758 20.5442 12.538C20.5442 9.6305 22.6608 7.27401 25.2722 7.27401ZM10.0578 8.44106L7.75509 11.0049L7.31372 10.5137L9.61645 7.94965L10.0578 8.44106Z" fill="white"/>
</svg>
