<svg width="36" height="36" viewBox="0 0 36 36" fill="none" xmlns="http://www.w3.org/2000/svg">
<circle cx="18" cy="18" r="18" fill="#003264"/>
<path d="M28.4065 21.1333C26.9876 21.2165 25.1216 22.5659 23.3218 23.3418C21.116 24.2925 17.6821 23.5282 17.6818 23.5282C18.2115 23.2915 20.3642 22.8035 20.7974 22.6225C23.1018 21.657 22.9065 19.6464 21.809 19.6634C20.3591 19.6855 19.5079 20.0242 16.6147 20.3997C14.4219 20.6834 11.8283 20.5797 10.5843 21.0318C8.82823 21.6703 6 25.966 6 25.966L10.3729 29.9999C10.3729 29.9999 13.0803 27.4619 14.3974 27.4619C17.399 27.4619 17.5202 27.4237 20.3075 27.2794C21.4927 27.2191 21.7401 27.1727 22.4183 26.9551C26.0312 25.7925 29.9105 22.696 29.9818 22.3245C30.1469 21.4608 29.1556 21.0902 28.4065 21.1333Z" fill="white"/>
<path d="M13.6438 12.4028L14.3424 12.5203C14.3489 12.5213 14.3551 12.5212 14.3615 12.5218C14.3901 12.9241 14.4659 13.3149 14.5858 13.6869C14.5771 13.6905 14.5688 13.6931 14.5608 13.6984L13.9462 14.0355C13.841 14.0938 13.7642 14.1889 13.7327 14.3001C13.7014 14.4125 13.7179 14.5316 13.7788 14.6309L14.5998 15.9851C14.6847 16.1249 14.8388 16.204 14.997 16.204C15.0745 16.204 15.1534 16.1852 15.2256 16.1445L15.8401 15.8074C15.8544 15.7999 15.8672 15.79 15.8796 15.7803C16.1643 16.0632 16.481 16.3141 16.8252 16.5306C16.8173 16.5445 16.8088 16.5595 16.8025 16.5758L16.56 17.2111C16.5181 17.3195 16.5239 17.4396 16.575 17.5443C16.6266 17.6491 16.7194 17.7294 16.8337 17.7699L18.3771 18.3048C18.4291 18.3224 18.4817 18.3306 18.534 18.3306C18.7212 18.3306 18.8967 18.221 18.9641 18.0435L19.2068 17.4089C19.2137 17.3913 19.2178 17.3734 19.2221 17.3556C19.4234 17.3766 19.628 17.389 19.835 17.389C20.0426 17.389 20.2468 17.3766 20.448 17.3555C20.4524 17.3733 20.4565 17.3911 20.4632 17.4088L20.7058 18.0435C20.7476 18.1526 20.8327 18.241 20.9428 18.2901C21.0041 18.3165 21.0699 18.3305 21.1366 18.3305C21.1893 18.3305 21.2427 18.3214 21.2931 18.3049L22.8367 17.7699C23.0746 17.6871 23.197 17.4374 23.1107 17.2111L22.868 16.5758C22.8614 16.5595 22.8536 16.5445 22.8453 16.5305C23.1892 16.314 23.5062 16.063 23.7906 15.7801C23.8038 15.7898 23.8157 15.7998 23.8302 15.8073L24.4448 16.1445C24.5151 16.1842 24.5941 16.2039 24.674 16.2039C24.7136 16.2039 24.7537 16.1982 24.7925 16.1888C24.9094 16.1584 25.01 16.0857 25.0704 15.9851L25.8918 14.6309C26.0182 14.4223 25.9432 14.1561 25.7241 14.0356L25.1096 13.6984C25.1014 13.6931 25.0928 13.6904 25.0851 13.6869C25.2041 13.3149 25.2801 12.9241 25.3086 12.5218C25.3149 12.521 25.3213 12.5212 25.328 12.5203L26.0267 12.4028C26.1465 12.3828 26.253 12.3183 26.3227 12.2239C26.3921 12.1296 26.4193 12.0122 26.3985 11.8978L26.1129 10.3586C26.092 10.244 26.0242 10.1426 25.9248 10.0773C25.825 10.0108 25.7022 9.98424 25.5824 10.0041L24.885 10.1214C24.7189 9.75088 24.5078 9.40227 24.2601 9.08032L24.7115 8.56898C24.7899 8.48051 24.8277 8.36558 24.8169 8.25104C24.8062 8.13541 24.7483 8.02915 24.6548 7.95502L23.3968 6.94969C23.3035 6.87568 23.1834 6.83929 23.0622 6.84904C22.9412 6.85968 22.8293 6.91488 22.7512 7.00336L22.3091 7.50539C21.9337 7.32328 21.5337 7.18203 21.1147 7.08705V6.43593C21.1147 6.19588 20.9097 6 20.6569 6H19.0143C18.7611 6 18.5558 6.19594 18.5558 6.43593V7.08711C18.1373 7.18203 17.7372 7.32334 17.3617 7.50545L16.9192 7.00348C16.8412 6.91501 16.7294 6.85981 16.6083 6.84917C16.4875 6.83941 16.367 6.87581 16.2742 6.94981L15.0156 7.95515C14.8218 8.10991 14.7965 8.38413 14.9592 8.56904L15.4104 9.08032C15.1625 9.40227 14.9521 9.75094 14.7855 10.1214L14.0882 10.0042C13.969 9.9843 13.8455 10.0108 13.7463 10.0773C13.6467 10.1426 13.5789 10.244 13.5578 10.3586L13.2729 11.8978C13.2283 12.1353 13.3947 12.3615 13.6438 12.4028ZM16.2368 12.2059C16.2368 10.3166 17.851 8.78054 19.835 8.78054C21.8192 8.78054 23.4336 10.3167 23.4336 12.2059C23.4336 14.095 21.8192 15.6311 19.835 15.6311C17.8509 15.631 16.2368 14.0949 16.2368 12.2059Z" fill="white"/>
</svg>
