<svg width="37" height="36" viewBox="0 0 37 36" fill="none" xmlns="http://www.w3.org/2000/svg">
<circle cx="18.6666" cy="18" r="18" fill="#18191A"/>
<path d="M28.3279 21.1333C26.9774 21.2165 25.2012 22.5659 23.488 23.3418C21.3884 24.2926 18.1198 23.5282 18.1195 23.5282C18.6237 23.2915 20.6728 22.8035 21.0851 22.6225C23.2786 21.657 23.0927 19.6464 22.048 19.6634C20.6679 19.6855 19.8577 20.0242 17.1038 20.3997C15.0165 20.6834 12.5477 20.5797 11.3637 21.0318C9.69209 21.6703 7 25.9661 7 25.9661L11.1624 30C11.1624 30 13.7395 27.462 14.9932 27.462C17.8503 27.462 17.9657 27.4238 20.6188 27.2794C21.747 27.2191 21.9824 27.1728 22.628 26.9552C26.067 25.7925 29.7596 22.696 29.8274 22.3245C29.9846 21.4608 29.041 21.0902 28.3279 21.1333Z" fill="white"/>
<path d="M14.2758 12.4029L14.9408 12.5204C14.947 12.5213 14.9529 12.5212 14.959 12.5219C14.9862 12.9242 15.0584 13.315 15.1725 13.687C15.1643 13.6906 15.1564 13.6932 15.1487 13.6985L14.5637 14.0356C14.4636 14.0939 14.3905 14.189 14.3605 14.3002C14.3307 14.4126 14.3464 14.5317 14.4043 14.631L15.1858 15.9852C15.2667 16.125 15.4134 16.2041 15.5639 16.2041C15.6377 16.2041 15.7128 16.1853 15.7816 16.1447L16.3665 15.8075C16.38 15.8 16.3923 15.7901 16.4041 15.7804C16.675 16.0633 16.9765 16.3142 17.3041 16.5307C17.2966 16.5446 17.2886 16.5596 17.2826 16.5759L17.0517 17.2112C17.0119 17.3196 17.0173 17.4397 17.066 17.5444C17.1151 17.6492 17.2034 17.7295 17.3122 17.77L18.7813 18.3049C18.8309 18.3225 18.8809 18.3308 18.9307 18.3308C19.1088 18.3308 19.2759 18.2211 19.3401 18.0437L19.571 17.409C19.5777 17.3914 19.5816 17.3735 19.5856 17.3557C19.7772 17.3767 19.972 17.3892 20.169 17.3892C20.3666 17.3892 20.561 17.3767 20.7526 17.3556C20.7567 17.3734 20.7606 17.3913 20.767 17.4089L20.9979 18.0437C21.0377 18.1527 21.1187 18.2411 21.2235 18.2902C21.2819 18.3167 21.3445 18.3306 21.408 18.3306C21.4582 18.3306 21.509 18.3215 21.5569 18.305L23.0263 17.77C23.2527 17.6872 23.3693 17.4375 23.2871 17.2112L23.056 16.5759C23.0498 16.5596 23.0423 16.5446 23.0345 16.5306C23.3618 16.3141 23.6636 16.0631 23.9342 15.7802C23.9468 15.7899 23.9581 15.7999 23.9719 15.8074L24.557 16.1447C24.6238 16.1843 24.699 16.204 24.7751 16.204C24.8128 16.204 24.851 16.1983 24.8879 16.189C24.9992 16.1585 25.095 16.0858 25.1524 15.9852L25.9343 14.631C26.0546 14.4224 25.9833 14.1562 25.7747 14.0357L25.1898 13.6985C25.182 13.6932 25.1737 13.6905 25.1664 13.6869C25.2797 13.315 25.352 12.9241 25.3792 12.5219C25.3852 12.5211 25.3912 12.5213 25.3976 12.5203L26.0627 12.4029C26.1767 12.3829 26.2781 12.3183 26.3444 12.2239C26.4105 12.1297 26.4364 12.0123 26.4166 11.8978L26.1447 10.3586C26.1248 10.2441 26.0603 10.1427 25.9657 10.0773C25.8707 10.0109 25.7538 9.98428 25.6398 10.0042L24.9759 10.1215C24.8179 9.75092 24.6169 9.40231 24.3811 9.08035L24.8109 8.56901C24.8854 8.48053 24.9214 8.3656 24.9112 8.25106C24.901 8.13543 24.8458 8.02917 24.7568 7.95504L23.5594 6.9497C23.4706 6.87569 23.3563 6.8393 23.2409 6.84905C23.1258 6.85969 23.0192 6.91489 22.9449 7.00337L22.524 7.5054C22.1668 7.32329 21.786 7.18204 21.3871 7.08706V6.43593C21.3871 6.19588 21.192 6 20.9514 6H19.3878C19.1468 6 18.9515 6.19594 18.9515 6.43593V7.08713C18.5531 7.18204 18.1722 7.32335 17.8148 7.50547L17.3936 7.0035C17.3193 6.91502 17.2129 6.85982 17.0977 6.84918C16.9827 6.83942 16.868 6.87582 16.7796 6.94982L15.5816 7.95517C15.3972 8.10993 15.373 8.38415 15.5279 8.56907L15.9574 9.08035C15.7215 9.40231 15.5212 9.75098 15.3626 10.1215L14.6989 10.0042C14.5854 9.98434 14.4679 10.0109 14.3734 10.0773C14.2786 10.1427 14.2141 10.2441 14.194 10.3586L13.9228 11.8978C13.8803 12.1354 14.0388 12.3616 14.2758 12.4029ZM16.7441 12.206C16.7441 10.3167 18.2805 8.78057 20.169 8.78057C22.0578 8.78057 23.5944 10.3168 23.5944 12.206C23.5944 14.0951 22.0578 15.6312 20.169 15.6312C18.2805 15.6311 16.7441 14.095 16.7441 12.206Z" fill="white"/>
</svg>
